<svg class="lds-gears" width="64px"  height="64px"  xmlns="http://www.w3.org/2000/svg" xmlns:xlink="http://www.w3.org/1999/xlink" viewBox="0 0 100 100" preserveAspectRatio="xMidYMid" style="background: none;"><g transform="translate(50 50)"> <g transform="translate(-19 -19) scale(0.6)"> <g transform="rotate(40.8)">
<animateTransform attributeName="transform" type="rotate" values="0;360" keyTimes="0;1" dur="2.5s" begin="0s" repeatCount="indefinite"></animateTransform><path d="M37.52332607858744 -6 L44.52332607858744 -6 L44.52332607858744 6 L37.52332607858744 6 A38 38 0 0 1 33.88371999680473 17.201555719705567 L33.88371999680473 17.201555719705567 L39.54683895742936 21.316052485752877 L32.493415929919685 31.02425641825225 L26.830296969295052 26.909759652204936 A38 38 0 0 1 17.3016845415271 33.83270181385877 L17.3016845415271 33.83270181385877 L19.46480350215173 40.490097427924844 L8.05212530660988 44.19830136042422 L5.889006345985248 37.54090574635814 A38 38 0 0 1 -5.889006345985243 37.54090574635814 L-5.889006345985243 37.54090574635814 L-8.052125306609874 44.19830136042422 L-19.464803502151725 40.490097427924844 L-17.301684541527095 33.83270181385877 A38 38 0 0 1 -26.830296969295045 26.909759652204944 L-26.830296969295045 26.909759652204944 L-32.49341592991968 31.024256418252257 L-39.54683895742936 21.316052485752877 L-33.88371999680473 17.201555719705567 A38 38 0 0 1 -37.52332607858744 6.000000000000009 L-37.52332607858744 6.000000000000009 L-44.52332607858744 6.00000000000001 L-44.52332607858744 -5.999999999999999 L-37.52332607858744 -6 A38 38 0 0 1 -33.88371999680473 -17.20155571970556 L-33.88371999680473 -17.20155571970556 L-39.54683895742936 -21.31605248575287 L-32.493415929919685 -31.024256418252246 L-26.830296969295052 -26.909759652204936 A38 38 0 0 1 -17.301684541527102 -33.83270181385876 L-17.301684541527102 -33.83270181385876 L-19.464803502151735 -40.49009742792484 L-8.052125306609886 -44.19830136042422 L-5.889006345985253 -37.54090574635814 A38 38 0 0 1 5.889006345985239 -37.54090574635814 L5.889006345985239 -37.54090574635814 L8.05212530660987 -44.19830136042422 L19.46480350215172 -40.490097427924844 L17.30168454152709 -33.83270181385877 A38 38 0 0 1 26.830296969295045 -26.909759652204947 L26.830296969295045 -26.909759652204947 L32.49341592991968 -31.02425641825226 L39.54683895742936 -21.316052485752884 L33.88371999680473 -17.20155571970557 A38 38 0 0 1 37.52332607858743 -6.000000000000013 M0 -30A30 30 0 1 0 0 30 A30 30 0 1 0 0 -30" fill="#02aff0"></path></g></g> <g transform="translate(19 19) scale(0.6)"> <g transform="rotate(301.2)">
<animateTransform attributeName="transform" type="rotate" values="360;0" keyTimes="0;1" dur="2.5s" begin="-0.125s" repeatCount="indefinite"></animateTransform><path d="M37.52332607858744 -6 L44.52332607858744 -6 L44.52332607858744 6 L37.52332607858744 6 A38 38 0 0 1 33.88371999680473 17.201555719705567 L33.88371999680473 17.201555719705567 L39.54683895742936 21.316052485752877 L32.493415929919685 31.02425641825225 L26.830296969295052 26.909759652204936 A38 38 0 0 1 17.3016845415271 33.83270181385877 L17.3016845415271 33.83270181385877 L19.46480350215173 40.490097427924844 L8.05212530660988 44.19830136042422 L5.889006345985248 37.54090574635814 A38 38 0 0 1 -5.889006345985243 37.54090574635814 L-5.889006345985243 37.54090574635814 L-8.052125306609874 44.19830136042422 L-19.464803502151725 40.490097427924844 L-17.301684541527095 33.83270181385877 A38 38 0 0 1 -26.830296969295045 26.909759652204944 L-26.830296969295045 26.909759652204944 L-32.49341592991968 31.024256418252257 L-39.54683895742936 21.316052485752877 L-33.88371999680473 17.201555719705567 A38 38 0 0 1 -37.52332607858744 6.000000000000009 L-37.52332607858744 6.000000000000009 L-44.52332607858744 6.00000000000001 L-44.52332607858744 -5.999999999999999 L-37.52332607858744 -6 A38 38 0 0 1 -33.88371999680473 -17.20155571970556 L-33.88371999680473 -17.20155571970556 L-39.54683895742936 -21.31605248575287 L-32.493415929919685 -31.024256418252246 L-26.830296969295052 -26.909759652204936 A38 38 0 0 1 -17.301684541527102 -33.83270181385876 L-17.301684541527102 -33.83270181385876 L-19.464803502151735 -40.49009742792484 L-8.052125306609886 -44.19830136042422 L-5.889006345985253 -37.54090574635814 A38 38 0 0 1 5.889006345985239 -37.54090574635814 L5.889006345985239 -37.54090574635814 L8.05212530660987 -44.19830136042422 L19.46480350215172 -40.490097427924844 L17.30168454152709 -33.83270181385877 A38 38 0 0 1 26.830296969295045 -26.909759652204947 L26.830296969295045 -26.909759652204947 L32.49341592991968 -31.02425641825226 L39.54683895742936 -21.316052485752884 L33.88371999680473 -17.20155571970557 A38 38 0 0 1 37.52332607858743 -6.000000000000013 M0 -30A30 30 0 1 0 0 30 A30 30 0 1 0 0 -30" fill="#041332"></path></g></g></g></svg>