<?xml version="1.0" encoding="iso-8859-1"?>
<!-- Generator: Adobe Illustrator 19.0.0, SVG Export Plug-In . SVG Version: 6.00 Build 0)  -->
<svg version="1.1" id="Capa_1" xmlns="http://www.w3.org/2000/svg" xmlns:xlink="http://www.w3.org/1999/xlink" x="0px" y="0px"
	 viewBox="0 0 512 512" style="enable-background:new 0 0 512 512;" xml:space="preserve">
<g>
	<g>
		<path d="M509.073,204.352c-1.875-1.877-4.42-2.931-7.072-2.931h-25.023c-5.522,0-9.999,4.477-9.999,9.999s4.477,9.999,9.999,9.999
			h15.019l-0.039,69.421h-28.83c-4.713,0-8.786,3.291-9.776,7.898c-5.118,23.824-14.433,46.299-27.682,66.801
			c-2.558,3.958-2.005,9.165,1.328,12.498l20.329,20.329l-49.107,49.07l-20.311-20.311c-3.333-3.334-8.54-3.886-12.498-1.328
			c-20.502,13.25-42.977,22.563-66.801,27.681c-4.608,0.99-7.898,5.062-7.898,9.776v28.722h-69.421v-28.722
			c0-4.713-3.292-8.786-7.898-9.776c-23.824-5.118-46.298-14.432-66.802-27.681c-3.959-2.558-9.165-2.006-12.498,1.328
			l-20.311,20.311l-49.107-49.069l20.329-20.329c3.333-3.333,3.886-8.54,1.328-12.498c-13.25-20.503-22.564-42.979-27.682-66.802
			c-0.99-4.608-5.063-7.898-9.776-7.898H19.998v-69.422h15.024c5.522,0,9.999-4.477,9.999-9.999s-4.477-9.999-9.999-9.999H9.999
			c-5.522,0-9.999,4.477-9.999,9.999v89.419c0,5.522,4.477,9.999,9.999,9.999h30.946c5.232,20.66,13.386,40.332,24.311,58.665
			L43.46,391.298c-1.875,1.876-2.929,4.42-2.929,7.072c0,2.653,1.055,5.196,2.932,7.071l63.253,63.206
			c3.905,3.902,10.234,3.901,14.139-0.002l21.772-21.773c18.333,10.925,38.004,19.077,58.665,24.311v30.793
			c0,5.522,4.477,9.999,9.999,9.999h89.419c5.523,0,9.999-4.477,9.999-9.999v-30.793c20.661-5.232,40.332-13.385,58.664-24.311
			l21.772,21.773c3.905,3.904,10.233,3.905,14.139,0.002l63.253-63.206c1.876-1.875,2.931-4.419,2.932-7.071
			c0.001-2.653-1.053-5.196-2.929-7.072l-21.796-21.795c10.926-18.332,19.078-38.004,24.311-58.665h30.897
			c5.52,0,9.996-4.474,9.999-9.994l0.05-89.419C512.001,208.773,510.949,206.228,509.073,204.352z"/>
	</g>
</g>
<g>
	<g>
		<path d="M243.071,80.538c-1.86-1.86-4.44-2.93-7.069-2.93s-5.209,1.07-7.069,2.93c-1.86,1.86-2.93,4.44-2.93,7.069
			c0,2.64,1.07,5.219,2.93,7.069c1.86,1.87,4.44,2.94,7.069,2.94s5.209-1.07,7.069-2.94c1.86-1.86,2.93-4.43,2.93-7.069
			C246.001,84.977,244.931,82.407,243.071,80.538z"/>
	</g>
</g>
<g>
	<g>
		<path d="M236.002,113.248c-5.522,0-9.999,4.477-9.999,9.999v167.372c0,17.76-14.45,32.21-32.21,32.21
			c-12.289,0-23.465-7.017-28.867-17.969c17.696-8.339,30.569-25.261,33.239-45.366c11.913-3.975,20.527-15.226,20.527-28.456
			c0-16.54-13.457-29.997-29.997-29.997c-16.54,0-29.997,13.457-29.997,29.997c0,12.771,8.025,23.696,19.294,28.016
			c-3.434,17.852-19.163,31.383-38.002,31.383c-21.343,0-38.706-17.363-38.706-38.706c0-7.908,2.324-15.391,6.736-21.822
			c8.018-1.993,15.418-6.233,21.171-12.303c3.8-4.008,3.63-10.336-0.378-14.136c-4.008-3.8-10.337-3.631-14.136,0.378
			c-4.497,4.744-10.57,7.355-17.102,7.355c-12.991,0-23.559-10.568-23.559-23.559v-54.342c0-12.991,10.568-23.559,23.559-23.559
			c10.289,0,19.052,6.632,22.255,15.844c-10.953,4.474-18.694,15.237-18.694,27.779c0,16.54,13.457,29.997,29.997,29.997
			c16.54,0,29.997-13.457,29.997-29.997c0-13.346-8.763-24.68-20.836-28.561c-2.692-13.556-11.69-24.868-23.802-30.732
			c-3.055-3.935-4.728-8.76-4.728-13.787c0-12.414,10.099-22.513,22.513-22.513c2.799,0,5.539,0.516,8.104,1.506
			c0.794,6.852,3.377,13.311,7.519,18.815c-1.004,2.993-1.557,6.19-1.557,9.517c0,16.54,13.457,29.997,29.997,29.997
			s29.997-13.457,29.997-29.997c0-16.54-13.457-29.997-29.997-29.997c-5.436,0-10.534,1.461-14.936,4
			c-0.845-2.167-1.299-4.49-1.299-6.88v-2.763c0-17.616,14.332-31.948,31.948-31.948c17.616,0,31.948,14.332,31.948,31.948
			c0,5.522,4.477,9.999,9.999,9.999S246,57.495,246,51.972c0-28.643-23.303-51.946-51.946-51.946
			c-24.114,0-44.439,16.517-50.266,38.83c-3.099-0.709-6.284-1.08-9.512-1.08c-23.441,0-42.511,19.07-42.511,42.511
			c0,3.302,0.382,6.558,1.121,9.716c-21.82,2.347-38.868,20.868-38.868,43.301v54.342c0.002,19.884,13.403,36.688,31.645,41.885
			c-2.86,7.008-4.377,14.559-4.377,22.199c0,32.37,26.334,58.704,58.704,58.704c1.811,0,3.599-0.095,5.367-0.256l0.693,1.567
			c8.354,18.881,27.094,31.082,47.742,31.082c28.788,0,52.208-23.42,52.208-52.208V123.247
			C246.001,117.725,241.524,113.248,236.002,113.248z M188.695,221.038c5.513,0,9.999,4.486,9.999,9.999
			c0,5.513-4.486,9.999-9.999,9.999c-5.513,0-9.999-4.486-9.999-9.999C178.696,225.523,183.181,221.038,188.695,221.038z
			 M131.134,143.366c5.513,0,9.999,4.486,9.999,9.999c0,5.513-4.486,9.999-9.999,9.999c-5.513,0-9.999-4.486-9.999-9.999
			C121.135,147.852,125.621,143.366,131.134,143.366z M178.341,77.612c5.513,0,9.999,4.486,9.999,9.999
			c0,5.513-4.486,9.999-9.999,9.999c-5.513,0-9.999-4.486-9.999-9.999C168.342,82.097,172.827,77.612,178.341,77.612z"/>
	</g>
</g>
<g>
	<g>
		<path d="M419.112,90.002c0.739-3.158,1.121-6.414,1.121-9.716c0-23.441-19.07-42.511-42.511-42.511
			c-3.228,0-6.413,0.371-9.511,1.08c-5.826-22.314-26.152-38.83-50.266-38.83c-28.643,0-51.946,23.303-51.946,51.946V180.47
			c0,5.522,4.477,9.999,9.999,9.999s9.999-4.477,9.999-9.999V51.971c0-17.616,14.332-31.948,31.948-31.948
			s31.948,14.332,31.948,31.948v2.763c0,2.6-0.547,5.145-1.557,7.488c-4.624-2.914-10.089-4.608-15.945-4.608
			c-16.54,0-29.997,13.457-29.997,29.997s13.457,29.997,29.997,29.997c16.54,0,29.997-13.457,29.997-29.997
			c0-2.902-0.422-5.704-1.194-8.36c4.629-5.715,7.555-12.653,8.42-19.971c2.567-0.991,5.307-1.507,8.108-1.507
			c12.414,0,22.513,10.099,22.513,22.513c0,5.026-1.674,9.853-4.729,13.788c-12.112,5.864-21.109,17.175-23.801,30.731
			c-12.073,3.882-20.836,15.216-20.836,28.561c0,16.54,13.457,29.997,29.997,29.997c16.54,0,29.997-13.457,29.997-29.997
			c0-12.543-7.741-23.306-18.694-27.779c3.203-9.211,11.966-15.843,22.255-15.843c12.991,0,23.559,10.568,23.559,23.559v54.342
			c0,12.991-10.568,23.559-23.559,23.559c-6.532,0-12.606-2.613-17.102-7.355c-3.799-4.008-10.128-4.176-14.136-0.377
			c-4.008,3.8-4.177,10.128-0.377,14.136c5.753,6.069,13.154,10.31,21.172,12.303c4.413,6.43,6.736,13.915,6.736,21.822
			c0,21.343-17.363,38.706-38.706,38.706c-18.839,0-34.569-13.532-38.002-31.383c11.269-4.32,19.294-15.246,19.294-28.016
			c0-16.54-13.457-29.997-29.997-29.997c-16.54,0-29.997,13.457-29.997,29.997c0,13.232,8.615,24.482,20.527,28.456
			c2.67,20.106,15.543,37.026,33.239,45.366c-5.403,10.953-16.578,17.969-28.867,17.969c-17.76,0-32.21-14.45-32.21-32.21v-33.782
			c0-5.522-4.477-9.999-9.999-9.999S266,251.315,266,256.837v33.782c-0.001,28.787,23.419,52.208,52.207,52.208
			c20.647,0,39.387-12.201,47.742-31.082l0.693-1.567c1.769,0.161,3.558,0.256,5.367,0.256c32.37,0,58.704-26.334,58.704-58.704
			c0-7.64-1.518-15.19-4.377-22.199c18.242-5.197,31.643-22.001,31.643-41.887v-54.342C457.98,110.87,440.932,92.348,419.112,90.002
			z M332.391,97.61c-5.513,0-9.999-4.486-9.999-9.999c0-5.513,4.486-9.999,9.999-9.999c5.513,0,9.999,4.486,9.999,9.999
			C342.39,93.124,337.904,97.61,332.391,97.61z M380.866,163.365c-5.513,0-9.999-4.486-9.999-9.999c0-5.513,4.486-9.999,9.999-9.999
			c5.513,0,9.999,4.486,9.999,9.999C390.865,158.879,386.379,163.365,380.866,163.365z M323.304,241.036
			c-5.513,0-9.999-4.486-9.999-9.999c0-5.513,4.486-9.999,9.999-9.999c5.513,0,9.999,4.486,9.999,9.999
			C333.303,236.55,328.818,241.036,323.304,241.036z"/>
	</g>
</g>
<g>
	<g>
		<path d="M283.067,214.135c-1.86-1.86-4.44-2.93-7.069-2.93s-5.209,1.07-7.069,2.93c-1.86,1.86-2.93,4.44-2.93,7.069
			c0,2.63,1.07,5.209,2.93,7.069c1.86,1.86,4.44,2.93,7.069,2.93s5.209-1.07,7.069-2.93c1.86-1.86,2.93-4.44,2.93-7.069
			C285.997,218.574,284.927,215.994,283.067,214.135z"/>
	</g>
</g>
<g>
	<g>
		<path d="M376.195,362.057c-3.906-3.905-10.236-3.905-14.142,0c-58.479,58.48-153.633,58.479-212.111,0
			c-3.903-3.906-10.234-3.906-14.14-0.001c-3.905,3.905-3.905,10.236,0,14.142c33.143,33.142,76.661,49.707,120.196,49.707
			c43.524,0,87.063-16.573,120.196-49.707C380.1,372.293,380.1,365.962,376.195,362.057z"/>
	</g>
</g>
<g>
	<g>
		<path d="M501.976,27.713h-6.858c-5.522,0-9.999,4.477-9.999,9.999s4.477,9.999,9.999,9.999h6.858c5.523,0,9.999-4.477,9.999-9.999
			S507.498,27.713,501.976,27.713z"/>
	</g>
</g>
<g>
	<g>
		<path d="M453.461,27.713h-6.858c-5.523,0-9.999,4.477-9.999,9.999s4.477,9.999,9.999,9.999h6.858c5.522,0,9.999-4.477,9.999-9.999
			S458.983,27.713,453.461,27.713z"/>
	</g>
</g>
<g>
	<g>
		<path d="M474.289,48.542c-5.522,0-9.999,4.477-9.999,9.999v6.858c0,5.521,4.477,9.999,9.999,9.999s9.999-4.477,9.999-9.999v-6.858
			C484.288,53.018,479.811,48.542,474.289,48.542z"/>
	</g>
</g>
<g>
	<g>
		<path d="M474.289,0.025c-5.522,0-9.999,4.477-9.999,9.999v6.858c0,5.522,4.477,9.999,9.999,9.999s9.999-4.477,9.999-9.999v-6.858
			C484.288,4.502,479.811,0.025,474.289,0.025z"/>
	</g>
</g>
<g>
	<g>
		<path d="M65.398,464.29h-6.858c-5.522,0-9.999,4.477-9.999,9.999s4.477,9.999,9.999,9.999h6.858c5.522,0,9.999-4.477,9.999-9.999
			S70.92,464.29,65.398,464.29z"/>
	</g>
</g>
<g>
	<g>
		<path d="M16.882,464.29h-6.858c-5.522,0-9.999,4.477-9.999,9.999s4.477,9.999,9.999,9.999h6.858c5.522,0,9.999-4.477,9.999-9.999
			S22.405,464.29,16.882,464.29z"/>
	</g>
</g>
<g>
	<g>
		<path d="M37.711,485.119c-5.522,0-9.999,4.477-9.999,9.999v6.858c0,5.523,4.477,9.999,9.999,9.999s9.999-4.477,9.999-9.999v-6.858
			C47.71,489.596,43.234,485.119,37.711,485.119z"/>
	</g>
</g>
<g>
	<g>
		<path d="M37.711,436.604c-5.522,0-9.999,4.477-9.999,9.999v6.858c0,5.522,4.477,9.999,9.999,9.999s9.999-4.477,9.999-9.999v-6.858
			C47.71,441.08,43.234,436.604,37.711,436.604z"/>
	</g>
</g>
<g>
</g>
<g>
</g>
<g>
</g>
<g>
</g>
<g>
</g>
<g>
</g>
<g>
</g>
<g>
</g>
<g>
</g>
<g>
</g>
<g>
</g>
<g>
</g>
<g>
</g>
<g>
</g>
<g>
</g>
</svg>
