<svg width="277" height="35" viewBox="0 0 277 35" fill="none" xmlns="http://www.w3.org/2000/svg">
<path d="M17.84 34L9.68 19.744C9.136 20.352 8.576 20.96 8 21.568C7.456 22.176 6.88 22.8 6.272 23.44V34H0.512V1.36H6.272V16.864C8.704 14.08 10.784 11.44 12.512 8.944C14.24 6.416 15.728 3.888 16.976 1.36H23.264C21.888 4.112 20.416 6.72 18.848 9.184C17.312 11.616 15.68 13.872 13.952 15.952L24.8 34H17.84ZM47.4661 34L45.4501 27.616H34.2661L32.2501 34H26.5381L37.4341 1.36H42.5221L53.4661 34H47.4661ZM37.3861 17.632L35.8981 22.336H43.7701L42.2821 17.632L39.8821 9.376L37.3861 17.632ZM51.8896 6.88V1.36H75.8896V6.88H66.7696V34H61.0096V6.88H51.8896ZM97.5166 29.392C98.7966 29.392 99.8526 29.088 100.685 28.48C101.517 27.872 102.029 27.056 102.221 26.032C102.413 24.976 102.173 23.808 101.501 22.528L105.917 19.84L113.213 34H107.213L105.101 29.248C104.653 30.784 103.725 32.048 102.317 33.04C100.941 34 99.1646 34.48 96.9886 34.48C94.1406 34.48 91.9006 33.68 90.2686 32.08C88.6686 30.48 87.8686 28.416 87.8686 25.888C87.8686 24.096 88.3326 22.416 89.2606 20.848C90.2206 19.28 91.8366 17.76 94.1086 16.288C92.5406 15.072 91.4046 13.856 90.7006 12.64C89.9966 11.392 89.6446 10.064 89.6446 8.656C89.6446 7.216 89.9806 5.904 90.6526 4.72C91.3246 3.536 92.3006 2.608 93.5806 1.936C94.8926 1.232 96.4926 0.879997 98.3806 0.879997C101.101 0.879997 103.261 1.584 104.861 2.992C106.461 4.4 107.261 6.352 107.261 8.848C107.261 10.352 106.957 11.648 106.349 12.736C105.773 13.824 104.973 14.816 103.949 15.712C102.925 16.576 101.725 17.44 100.349 18.304L96.9886 20.464C95.5486 21.392 94.6046 22.288 94.1566 23.152C93.7086 24.016 93.4846 24.848 93.4846 25.648C93.4846 26.928 93.8526 27.872 94.5886 28.48C95.3566 29.088 96.3326 29.392 97.5166 29.392ZM94.9726 8.944C94.9726 9.648 95.1646 10.432 95.5486 11.296C95.9646 12.16 96.6686 13.04 97.6606 13.936C98.7806 13.2 99.6286 12.592 100.205 12.112C100.781 11.6 101.181 11.12 101.405 10.672C101.629 10.224 101.741 9.728 101.741 9.184C101.741 8.032 101.421 7.2 100.781 6.688C100.141 6.144 99.3566 5.872 98.4286 5.872C97.4686 5.872 96.6526 6.128 95.9806 6.64C95.3086 7.152 94.9726 7.92 94.9726 8.944ZM144.544 34L142.528 27.616H131.344L129.328 34H123.616L134.512 1.36H139.6L150.544 34H144.544ZM134.464 17.632L132.976 22.336H140.848L139.36 17.632L136.96 9.376L134.464 17.632ZM161.756 22V34H155.996V1.36H166.892C170.188 1.36 172.716 2.208 174.476 3.904C176.268 5.568 177.164 7.808 177.164 10.624V12.688C177.164 14.544 176.764 16.176 175.964 17.584C175.164 18.992 174.012 20.064 172.508 20.8C175.132 25.28 177.372 29.68 179.228 34H172.652C171.052 30 169.148 26 166.94 22H161.756ZM166.892 6.64H161.756V16.72H166.892C168.3 16.72 169.372 16.368 170.108 15.664C170.876 14.928 171.26 13.936 171.26 12.688V10.624C171.26 9.408 170.876 8.448 170.108 7.744C169.372 7.008 168.3 6.64 166.892 6.64ZM181.358 6.88V1.36H205.358V6.88H196.238V34H190.478V6.88H181.358ZM216.272 22V34H210.512V1.36H221.408C224.704 1.36 227.232 2.208 228.992 3.904C230.784 5.568 231.68 7.808 231.68 10.624V12.688C231.68 14.544 231.28 16.176 230.48 17.584C229.68 18.992 228.528 20.064 227.024 20.8C229.648 25.28 231.888 29.68 233.744 34H227.168C225.568 30 223.664 26 221.456 22H216.272ZM221.408 6.64H216.272V16.72H221.408C222.816 16.72 223.888 16.368 224.624 15.664C225.392 14.928 225.776 13.936 225.776 12.688V10.624C225.776 9.408 225.392 8.448 224.624 7.744C223.888 7.008 222.816 6.64 221.408 6.64ZM245.522 34H239.762V1.36H245.522V34ZM270.08 34L263.264 22.048L256.784 34H250.736L260.288 17.056L251.264 1.36H257.792L264.08 12.304L269.984 1.36H276.032L267.056 17.344L276.608 34H270.08Z" fill="#02AFF0"/>
</svg>
